<svg width="84" height="84" viewBox="0 0 84 84" xmlns="http://www.w3.org/2000/svg"><title>smile</title><path d="M42 7c19.299 0 35 15.701 35 35S61.299 77 42 77 7 61.299 7 42 22.701 7 42 7zm0-7C18.805 0 0 18.805 0 42s18.805 42 42 42 42-18.805 42-42S65.195 0 42 0zm19.275 48.794c-5.292 4.182-11.11 6.758-19.271 6.758-8.17 0-13.986-2.576-19.278-6.758L21 50.519C24.945 56.539 32.2 63 42.004 63c9.8 0 17.052-6.461 20.996-12.481l-1.725-1.725zM29.75 28a5.25 5.25 0 1 0 0 10.5 5.25 5.25 0 0 0 0-10.5zm24.5 0a5.25 5.25 0 1 0 0 10.5 5.25 5.25 0 0 0 0-10.5z"/></svg>