<svg width="100" height="104" viewBox="0 0 100 104" xmlns="http://www.w3.org/2000/svg"><title>refresh</title><path d="M45.833 0c-20.66 0-37.5 16.813-37.5 37.44v29.12H0v4.16C0 89.05 14.973 104 33.333 104h33.334C85.027 104 100 89.05 100 70.72v-4.16H63.672l-.912 2.86c-.724 2.098-5.722 5.46-12.89 5.46s-11.848-3.192-12.63-5.46l-.912-2.86H16.667V37.44c0-13.353 9.118-24.099 21.354-27.56.62 2.443 2.186 4.213 3.515 5.07 1.625 1.048 3.125 1.56 3.125 1.56l.521.13h9.375l.521-.13s1.654-.256 3.386-1.3c1.731-1.044 4.036-3.492 4.036-6.89 0-3.398-2.305-5.846-4.036-6.89C56.732.386 55.078.13 55.078.13l-.52-.13h-8.725zM50 24.96a4.163 4.163 0 0 0-4.167 4.16A4.163 4.163 0 0 0 50 33.28a4.163 4.163 0 0 0 4.167-4.16A4.163 4.163 0 0 0 50 24.96zm-8.333 12.48A4.163 4.163 0 0 0 37.5 41.6a4.163 4.163 0 0 0 4.167 4.16 4.163 4.163 0 0 0 4.166-4.16 4.163 4.163 0 0 0-4.166-4.16zm16.666 0a4.163 4.163 0 0 0-4.166 4.16 4.163 4.163 0 0 0 4.166 4.16A4.163 4.163 0 0 0 62.5 41.6a4.163 4.163 0 0 0-4.167-4.16zm-25 12.48a4.163 4.163 0 0 0-4.166 4.16 4.163 4.163 0 0 0 4.166 4.16 4.163 4.163 0 0 0 4.167-4.16 4.163 4.163 0 0 0-4.167-4.16zm16.667 0a4.163 4.163 0 0 0-4.167 4.16A4.163 4.163 0 0 0 50 58.24a4.163 4.163 0 0 0 4.167-4.16A4.163 4.163 0 0 0 50 49.92zm16.667 0a4.163 4.163 0 0 0-4.167 4.16 4.163 4.163 0 0 0 4.167 4.16 4.163 4.163 0 0 0 4.166-4.16 4.163 4.163 0 0 0-4.166-4.16zM9.115 74.88H31.12c3.544 5.405 10.633 8.32 18.75 8.32 8.132 0 15.376-2.823 19.01-8.32h22.005c-2.033 11.762-11.836 20.8-24.218 20.8H33.333c-12.382 0-22.185-9.038-24.218-20.8z"/></svg>