<svg width="90" height="90" viewBox="0 0 90 90" xmlns="http://www.w3.org/2000/svg"><title>relax</title><g fill="none" fill-rule="evenodd"><path d="M7.441 33.75v16.417c0 11.644 9.362 21.083 20.91 21.083h21.417c11.55 0 20.913-9.44 20.913-21.083V33.75H7.441zm42.327 45H28.352C12.694 78.75.002 65.953.002 50.167V30c0-2.071 1.665-3.75 3.72-3.75h70.68c2.054 0 3.72 1.679 3.72 3.75v20.167c0 15.785-12.696 28.583-28.354 28.583z" fill="#000" fill-rule="nonzero"/><path d="M28.35 63.75c-7.428 0-13.47-6.094-13.47-13.583" stroke="#000" stroke-width="7.5" stroke-linecap="round" stroke-linejoin="round"/><path d="M68.82 82.5a1.87 1.87 0 0 0 1.86-1.875 1.87 1.87 0 0 0-1.86-1.875H9.3a1.87 1.87 0 0 0-1.86 1.875A1.87 1.87 0 0 0 9.3 82.5h59.52zm0 7.5H9.3C4.165 90 0 85.801 0 80.625s4.165-9.375 9.3-9.375h59.52c5.135 0 9.3 4.199 9.3 9.375S73.955 90 68.82 90zm16.74-60c1.932 0 3.543 1.491 3.707 3.432.014.17.033.453.05.838.194 4.126-.114 8.907-1.347 13.56-2.2 8.31-6.937 14.122-14.792 15.567-2.901.533-5.236-2.386-4.102-5.13a21.157 21.157 0 0 0 1.604-8.1V33.75c0-2.071 1.666-3.75 3.72-3.75h11.16zm-7.44 7.5v12.667c0 .627-.02 1.25-.06 1.871 1.169-1.609 2.066-3.666 2.722-6.143.733-2.767 1.07-5.687 1.135-8.395H78.12zm-60.245-31c.98.964.98 1.156.042 2.037-4.027 3.869-4.027 8.842-.116 12.843a3.699 3.699 0 0 0 5.26.04 3.771 3.771 0 0 0 .04-5.303c-1.03-1.054-1.03-1.211-.083-2.12 4.05-3.8 4.044-8.94.054-12.865a3.699 3.699 0 0 0-5.26.065 3.771 3.771 0 0 0 .063 5.303zm18.6-.067c.98.965.98 1.157.042 2.038-4.027 3.869-4.027 8.841-.116 12.843a3.699 3.699 0 0 0 5.26.04 3.771 3.771 0 0 0 .04-5.304c-1.03-1.053-1.03-1.21-.083-2.12 4.05-3.8 4.044-8.938.054-12.864a3.699 3.699 0 0 0-5.26.065 3.771 3.771 0 0 0 .063 5.302zm18.585.001c.98.964.98 1.156.04 2.037-4.026 3.869-4.026 8.842-.115 12.843a3.699 3.699 0 0 0 5.26.04 3.771 3.771 0 0 0 .04-5.303c-1.03-1.054-1.03-1.211-.083-2.12 4.05-3.8 4.044-8.94.054-12.865a3.699 3.699 0 0 0-5.26.065 3.771 3.771 0 0 0 .063 5.303z" fill="#000" fill-rule="nonzero"/></g></svg>