<svg width="35" height="30" viewBox="0 0 35 30" xmlns="http://www.w3.org/2000/svg" xmlns:xlink="http://www.w3.org/1999/xlink"><title>UNQ/reile_logo_notypo</title><defs><path id="a" d="M34.747.002H0v29.9h34.747V.002z"/></defs><g fill="none" fill-rule="evenodd"><path d="M14.798 16.266c-.02-.03-.905-1.288-2.523-1.119-1.636.172-4.046 2.985-4.576 3.5-1.017.991-2.395 1.063-2.563-.05a1.553 1.553 0 0 1-.017-.2v-.005a1.5 1.5 0 0 1 .086-.538l.009-.023c.04-.106.09-.205.15-.295l.002-.003c.25-.37.643-.587.981-.56h.007a.62.62 0 0 1 .233.073l-.005-.007.012.004c-.349-.643-1.987-.607-2.43.741-.445 1.356.248 4.088 2.752 4.699 1.598.39 4.183-.383 6.044-1.41l.071-.04c.125-.07.248-.14.365-.212l.095-.06c.086-.055.17-.109.25-.164l.112-.075a7.198 7.198 0 0 0 .607-.476l.074-.067a3.8 3.8 0 0 0 .178-.178l.064-.067c.061-.07.117-.137.166-.205l.052-.075c.033-.05.063-.1.09-.149.009-.017.022-.036.032-.053 0 0 .291-.808.218-1.502-.073-.695-.534-1.486-.534-1.486l-.002.002z" fill="#FEFEFE"/><mask id="b" fill="#fff"><use xlink:href="#a"/></mask><path d="M26.076 9.756c-.107.005-.213.005-.32.005-1.417 0-2.668-.49-3.529-1.384-.78-.809-1.18-1.894-1.133-3.06.107-2.49 3.015-3.655 4.95-3.655 1.86 0 4.651.974 4.716 3.645.063 2.672-1.642 4.294-4.684 4.449m-8.702 3.483c.68 0 1.23.548 1.23 1.225s-.55 1.226-1.23 1.226a1.23 1.23 0 0 1-1.232-1.226c0-.677.552-1.225 1.232-1.225m-4.86-4.862c-.855.894-2.111 1.384-3.523 1.384-.106 0-.219 0-.326-.005C5.63 9.6 3.923 7.979 3.982 5.307c.065-2.671 2.86-3.645 4.72-3.645 1.93 0 4.839 1.165 4.946 3.656.053 1.165-.353 2.25-1.134 3.06M34.186 4.13h-.738c-.246 0-.78-.255-1.133-.804-.353-.553-2.326-3.325-6.26-3.325-3.293 0-5.185 1.878-6.094 2.778a4.84 4.84 0 0 1-.294.287c-.374-.1-1.395-.362-2.293-.362-.904 0-1.92.261-2.294.362a4.642 4.642 0 0 1-.294-.287C13.878 1.88 11.98.002 8.692.002c-3.94 0-5.912 2.772-6.265 3.325-.348.549-.882.804-1.133.804H.556A.558.558 0 0 0 0 4.685v.808c0 .304.251.554.556.554h.273c.486 0 .85.048 1.111.66.209.478 2.154 4.714 6.528 4.714.08 0 .155 0 .235-.005a9.175 9.175 0 0 0 2.193-.32l3.023 3.368 3.451 3.85 10.302 11.482a.32.32 0 0 0 .237.106c.07 0 .145-.024.202-.073a4.797 4.797 0 0 0 .394-6.802l-7.683-8.563-3.452-3.848-2.561-2.855c.207-.399.45-.935.672-1.422.235-.515.476-1.042.572-1.191.236-.346.743-.56 1.32-.56.578 0 1.08.214 1.316.56.096.143.33.665.56 1.165.224.495.474 1.04.686 1.445l-1.464 1.633.122.139 3.329 3.709 1.922-2.142a9.206 9.206 0 0 0 2.195.319c.08.005.16.005.235.005 4.277 0 6.19-3.927 6.528-4.715.261-.611.625-.66 1.111-.66h.273c.31 0 .561-.25.561-.553v-.808a.56.56 0 0 0-.561-.554" fill="#FEFEFE" mask="url(#b)"/></g></svg>